#!OML:ASF X:\für Bonn\!DataBase\2005_08_10_Bjorn_Final\c3d\bjorn.ASF
:FULLY-SPECIFIED
:DEGREES
91
root 18.1497 18.6526 1.21844 1116.89 -83.5695 -364.352
lowerback 44.7484 6.02862 7.45224
upperback 23.7946 5.92988 -2.23453
thorax 6.97453 3.10319 -8.06624
lowerneck 13.6774 -5.46064 7.13074
upperneck -16.9095 -6.79803 -3.65275
head -7.84864 -3.4312 -1.61543
rclavicle -1.17681e-013 1.4074e-013
rhumerus 62.767 -14.5256 -77.6417
rradius 13.592
rwrist 0.550621
rhand -12.0182 11.9274
rfingers 7.12502
rthumb 14.0394 -17.5784
lclavicle -1.17681e-013 1.4074e-013
lhumerus -4.34463 -25.028 78.9064
lradius 54.5434
lwrist 3.03672
lhand -26.4511 -9.23108
lfingers 7.12502
lthumb 0.110016 20.7486
rfemur -68.04 -7.49111 17.6195
rtibia 48.2621
rfoot -10.4113 14.1093
rtoes -3.18334
lfemur -65.3061 12.3452 -26.5761
ltibia 44.822
lfoot -5.70451 -7.47385
ltoes -5.02163
92
root 18.1181 18.6119 1.21185 1115.34 -83.3323 -362.208
lowerback 45.0922 5.89629 7.56554
upperback 23.7162 5.84738 -2.29768
thorax 6.80341 3.0861 -8.17769
lowerneck 13.5864 -5.52381 7.34707
upperneck -16.9542 -6.84071 -3.62163
head -7.85725 -3.47061 -1.63645
rclavicle -6.67916e-014 8.11041e-014
rhumerus 63.6423 -14.8455 -78.2805
rradius 13.3117
rwrist 1.26297
rhand -12.1737 12.1199
rfingers 7.12502
rthumb 13.8896 -17.3963
lclavicle -6.67916e-014 8.11041e-014
lhumerus -4.48142 -24.9594 78.8765
lradius 54.2024
lwrist 3.04451
lhand -26.1568 -9.14422
lfingers 7.12502
lthumb 0.394313 20.8352
rfemur -68.8559 -7.55586 17.4071
rtibia 47.9897
rfoot -10.3534 14.0029
rtoes -4.79094
lfemur -66.1898 12.0881 -26.866
ltibia 45.3701
lfoot -5.88199 -7.66253
ltoes -4.64899
93
root 18.0869 18.57 1.20321 1113.81 -83.068 -360.103
lowerback 45.4123 5.75223 7.69962
upperback 23.6366 5.76181 -2.36121
thorax 6.6395 3.07064 -8.29802
lowerneck 13.5427 -5.5974 7.54743
upperneck -17.0334 -6.89067 -3.55054
head -7.88424 -3.51579 -1.63937
rclavicle -6.67916e-014 1.51076e-014
rhumerus 64.4357 -15.1111 -78.7863
rradius 13.0881
rwrist 1.7858
rhand -12.3364 12.1855
rfingers 7.12502
rthumb 13.7328 -17.3414
lclavicle -6.67916e-014 1.51076e-014
lhumerus -4.62408 -24.9531 78.8394
lradius 53.8555
lwrist 3.18665
lhand -25.9288 -8.94896
lfingers 7.12502
lthumb 0.614464 21.0299
rfemur -69.6425 -7.65648 17.2129
rtibia 47.8005
rfoot -10.1846 13.8895
rtoes -6.46189
lfemur -67.0594 11.7771 -27.1052
ltibia 45.9371
lfoot -6.02292 -7.81694
ltoes -4.04689
94
root 18.0541 18.5255 1.19374 1112.52 -82.764 -358.247
lowerback 45.6962 5.58717 7.85435
upperback 23.5701 5.65864 -2.41399
thorax 6.4989 3.04834 -8.41019
lowerneck 13.437 -5.63757 7.69512
upperneck -17.0721 -6.90801 -3.47067
head -7.88261 -3.54354 -1.63672
rclavicle -9.54166e-015 -1.51076e-014
rhumerus 65.3447 -15.4171 -79.6246
rradius 12.8266
rwrist 2.56501
rhand -12.5731 12.299
rfingers 7.12502
rthumb 13.5047 -17.2431
lclavicle -9.54166e-015 -1.51076e-014
lhumerus -4.73792 -24.8962 78.8054
lradius 53.481
lwrist 3.29409
lhand -25.7361 -8.8219
lfingers 7.12502
lthumb 0.800646 21.1563
rfemur -70.4145 -7.81134 17.101
rtibia 47.7013
rfoot -9.91735 13.8155
rtoes -9.75069
lfemur -67.9365 11.4828 -27.3462
ltibia 46.5247
lfoot -6.19473 -8.01642
ltoes -3.73877
95
root 18.0194 18.4805 1.18178 1111.58 -82.3985 -356.724
lowerback 45.911 5.39838 8.04967
upperback 23.5141 5.54348 -2.45473
thorax 6.38879 3.02496 -8.52379
lowerneck 13.3472 -5.67198 7.84104
upperneck -17.1549 -6.92119 -3.40257
head -7.89855 -3.56859 -1.63739
rclavicle 6.36111e-015 -1.51076e-014
rhumerus 66.2747 -15.6752 -80.4991
rradius 12.5639
rwrist 3.26708
rhand -12.8488 12.3782
rfingers 7.12502
rthumb 13.2389 -17.1814
lclavicle 6.36111e-015 -1.51076e-014
lhumerus -4.81117 -24.7999 78.7405
lradius 53.0659
lwrist 3.39541
lhand -25.5337 -8.82619
lfingers 7.12502
lthumb 0.996118 21.1512
rfemur -71.1757 -7.99444 17.0527
rtibia 47.6853
rfoot -9.50911 13.7957
rtoes -12.2424
lfemur -68.8142 11.142 -27.5035
ltibia 47.118
lfoot -6.38258 -8.19818
ltoes -3.32452
96
root 17.985 18.4351 1.16893 1110.58 -82.0057 -355.16
lowerback 46.0481 5.20058 8.23277
upperback 23.5113 5.40413 -2.47857
thorax 6.35236 2.99046 -8.60251
lowerneck 13.2134 -5.67357 7.94053
upperneck -17.2203 -6.89429 -3.29536
head -7.89539 -3.57572 -1.62377
rclavicle -6.99722e-014 6.75868e-014
rhumerus 67.2629 -15.8856 -81.4585
rradius 12.3337
rwrist 3.97916
rhand -13.1151 12.4219
rfingers 7.12502
rthumb 12.9823 -17.1542
lclavicle -6.99722e-014 6.75868e-014
lhumerus -4.83255 -24.6406 78.6702
lradius 52.6644
lwrist 3.46137
lhand -25.4171 -8.90306
lfingers 7.12502
lthumb 1.10868 21.0738
rfemur -71.9288 -8.22862 17.026
rtibia 47.7669
rfoot -8.96325 13.9865
rtoes -13.9741
lfemur -69.6741 10.7843 -27.6819
ltibia 47.7177
lfoot -6.55752 -8.38599
ltoes -3.14926
97
root 17.9517 18.3887 1.15279 1109.53 -81.6004 -353.582
lowerback 46.1328 5.03022 8.33964
upperback 23.5738 5.25621 -2.45099
thorax 6.39082 2.94075 -8.58112
lowerneck 13.0316 -5.65209 7.9874
upperneck -17.3418 -6.86497 -3.23419
head -7.90161 -3.57648 -1.61795
rclavicle -1.59028e-014 -5.56597e-015
rhumerus 68.3354 -16.0061 -82.3985
rradius 12.0884
rwrist 4.59169
rhand -13.4022 12.4934
rfingers 7.12502
rthumb 12.7055 -17.1
lclavicle -1.59028e-014 -5.56597e-015
lhumerus -4.74457 -24.3777 78.618
lradius 52.2219
lwrist 3.54617
lhand -25.3208 -9.00814
lfingers 7.12502
lthumb 1.20171 20.9682
rfemur -72.6522 -8.4644 16.9714
rtibia 47.9479
rfoot -8.06483 14.174
rtoes -12.9546
lfemur -70.4942 10.4275 -27.8567
ltibia 48.3147
lfoot -6.72095 -8.59632
ltoes -2.77945
98
root 17.9183 18.3404 1.1336 1108.35 -81.1704 -351.897
lowerback 46.1863 4.85625 8.4475
upperback 23.6653 5.09997 -2.42655
thorax 6.4696 2.89099 -8.56003
lowerneck 12.7464 -5.62856 8.08501
upperneck -17.4226 -6.83018 -3.17194
head -7.87769 -3.57928 -1.62345
rclavicle 1.01778e-013 -1.1609e-013
rhumerus 69.4832 -16.1567 -83.4988
rradius 11.8108
rwrist 5.31436
rhand -13.6999 12.6131
rfingers 7.12502
rthumb 12.4185 -16.998
lclavicle 1.01778e-013 -1.1609e-013
lhumerus -4.62731 -24.147 78.5241
lradius 51.8457
lwrist 3.63704
lhand -25.1443 -8.97772
lfingers 7.12502
lthumb 1.37217 20.9976
rfemur -73.3519 -8.71463 16.8804
rtibia 48.2403
rfoot -7.46116 14.1778
rtoes -12.0711
lfemur -71.276 10.0197 -28.0204
ltibia 48.915
lfoot -6.91263 -8.79554
ltoes -2.45853
99
root 17.8847 18.2921 1.11349 1107.14 -80.7476 -350.21
lowerback 46.2343 4.69237 8.52775
upperback 23.7734 4.94211 -2.39425
thorax 6.56552 2.83747 -8.5155
lowerneck 12.4604 -5.59787 8.14301
upperneck -17.5262 -6.79351 -3.09929
head -7.85902 -3.58017 -1.61924
rclavicle -1.90833e-014 2.46493e-014
rhumerus 70.6461 -16.2674 -84.5953
rradius 11.5294
rwrist 5.96391
rhand -13.9458 12.7015
rfingers 7.12502
rthumb 12.1814 -16.9238
lclavicle -1.90833e-014 2.46493e-014
lhumerus -4.47101 -23.9104 78.4424
lradius 51.4443
lwrist 3.80987
lhand -24.9804 -8.85259
lfingers 7.12502
lthumb 1.53047 21.1217
rfemur -74.0191 -8.99431 16.786
rtibia 48.6386
rfoot -7.07401 13.9913
rtoes -11.1113
lfemur -72.0241 9.60434 -28.2014
ltibia 49.5124
lfoot -7.10833 -8.94363
ltoes -2.52462
100
root 17.851 18.2436 1.09175 1106.05 -80.3078 -348.691
lowerback 47.4672 4.40641 8.6349
upperback 22.879 4.86754 -2.65359
thorax 6.37673 2.79726 -8.44956
lowerneck 12.1768 -5.60576 8.28498
upperneck -17.5028 -6.7865 -3.02426
head -7.80389 -3.59791 -1.62528
rclavicle -8.90555e-014 -7.95139e-016
rhumerus 71.6962 -16.4427 -85.7937
rradius 11.2217
rwrist 6.70253
rhand -14.2245 12.8167
rfingers 7.12502
rthumb 11.9126 -16.8244
lclavicle -8.90555e-014 -7.95139e-016
lhumerus -4.41357 -23.7624 78.3376
lradius 51.0597
lwrist 3.95687
lhand -24.7895 -8.77407
lfingers 7.12502
lthumb 1.71483 21.1988
rfemur -74.6403 -9.2528 16.6704
rtibia 49.1289
rfoot -6.89782 13.7526
rtoes -10.4464
lfemur -72.7289 9.194 -28.3493
ltibia 50.1135
lfoot -7.28709 -9.09845
ltoes -2.25913
101
root 17.8173 18.195 1.06939 1104.96 -79.8641 -347.17
lowerback 47.6412 4.21282 8.79229
upperback 22.88 4.73499 -2.66402
thorax 6.34683 2.76261 -8.4952
lowerneck 11.9031 -5.61931 8.41566
upperneck -17.4926 -6.78583 -2.92811
head -7.75416 -3.61981 -1.62153
rclavicle 3.49861e-014 1.66979e-014
rhumerus 72.6416 -16.6175 -86.8829
rradius 10.9626
rwrist 7.32317
rhand -14.4517 12.9376
rfingers 7.12502
rthumb 11.6936 -16.716
lclavicle 3.49861e-014 1.66979e-014
lhumerus -4.39176 -23.6825 78.2503
lradius 50.686
lwrist 4.08271
lhand -24.695 -8.66054
lfingers 7.12502
lthumb 1.80616 21.3116
rfemur -75.2791 -9.56539 16.5647
rtibia 49.6958
rfoot -6.80102 13.5959
rtoes -9.57602
lfemur -73.4 8.73921 -28.4793
ltibia 50.7133
lfoot -7.53291 -9.2038
ltoes -2.43953
102
root 17.7839 18.1466 1.04554 1103.9 -79.4024 -345.708
lowerback 47.8559 4.0024 9.0096
upperback 22.8441 4.61665 -2.70418
thorax 6.27896 2.74371 -8.60542
lowerneck 11.6358 -5.67893 8.66391
upperneck -17.4552 -6.83238 -2.8692
head -7.70558 -3.66761 -1.64351
rclavicle 5.40694e-014 -9.54166e-014
rhumerus 73.6247 -16.9198 -88.3381
rradius 10.6777
rwrist 8.30918
rhand -14.6867 13.0546
rfingers 7.12502
rthumb 11.4669 -16.6118
lclavicle 5.40694e-014 -9.54166e-014
lhumerus -4.38627 -23.7116 78.1344
lradius 50.3133
lwrist 4.27544
lhand -24.6058 -8.58014
lfingers 7.12502
lthumb 1.89233 21.3912
rfemur -75.9222 -9.85956 16.4043
rtibia 50.3274
rfoot -6.77256 13.37
rtoes -8.51523
lfemur -74.056 8.27324 -28.6005
ltibia 51.3212
lfoot -7.75055 -9.30295
ltoes -2.49987
